<?xml version="1.0" encoding="utf-8"?>
<svg version="1.1" id="Layer_1" xmlns="http://www.w3.org/2000/svg" xmlns:xlink="http://www.w3.org/1999/xlink" x="0px" y="0px"
	 viewBox="0 0 1484.2 1927.4" style="enable-background:new 0 0 1484.2 1927.4;" xml:space="preserve">
<style type="text/css">
	.st0{fill:#FFFFFF;}
	.st1{fill:#960000;}
</style>
<g>
	<path class="st1" d="M0.4,873.5V710.3c38.2-136.5,77.2-272.7,117.3-408.6C80.7,303.5,38,305.3,1,307V106.9h215.7
		c0,51.6,0,103.2,0,154.8c-40,132.4-79.1,265.1-117.3,398.1c39.1-5.3,78.2-10.5,117.3-15.8l0,190.1
		C144.6,847.2,72.5,860.3,0.4,873.5"/>
	<path class="st1" d="M414.4,797.9c-4.1-35.2-8.2-70.5-12.3-105.7c-30.1,4.6-60.2,9.3-90.2,13.9c-4.1,37.6-8.2,75.2-12.3,112.7
		c-28.7,5.2-43,7.9-71.7,13.1c30.2-241.8,60.9-483.4,92.5-725h77c30,225.8,60.7,451.6,92.1,677.2
		C459.5,789.6,444.4,792.4,414.4,797.9 M328.9,553.1c22.5-2.6,33.8-3.9,56.3-6.5c-9.4-81.7-18.7-163.5-28-245.3
		C347.7,385.2,338.3,469.1,328.9,553.1"/>
	<path class="st1" d="M491.1,302.3c0.7-43.3-9.2-192.7,63.5-195.3h102.5c71.1,2.8,62.7,139.6,63.5,183.2c0,18.5,0,27.8,0,46.3
		c-27.2,1.8-40.7,2.7-67.9,4.5c0-5.5,0-8.3,0-13.9c0-44.4-5-59-20.1-58.3c-21.4,1-32.1,1.5-53.4,2.4c-15.1,0.7-20.1,16.1-20.1,61.7
		l0,224c0,44.6,5,60,20.1,57.9c22.4-3.1,33.6-4.7,56-7.9c15.1-2.1,20.1-18.5,20.1-62c0-10,0-15,0-25c-19.6,2.3-29.4,3.4-49,5.7
		c0-44,0-88.1,0-132.1c38.1-3,76.3-6.1,114.4-9.1c0,58.1,0,116.1,0,174.2c-0.9,49.5,7,180.6-63.5,194.8
		c-34.2,6.2-68.3,12.5-102.5,18.7c-72.1,12.1-62.9-148.5-63.5-183.7C491.1,493.1,491.1,397.7,491.1,302.3"/>
	<path class="st1" d="M909.5,707.4c-4.1-30.5-8.2-61.1-12.2-91.6c-30.1,4.6-60.1,9.3-90.2,13.9c-4.1,32.9-8.2,65.8-12.3,98.7
		c-28.7,5.2-43,7.9-71.7,13.1c30.1-211.6,60.9-423.1,92.5-634.5h77c29.9,195.7,60.5,391.3,92,586.8
		C954.6,699.2,939.5,701.9,909.5,707.4 M824,495.9c22.5-2.6,33.8-3.9,56.3-6.5c-9.4-71.1-18.7-142.1-28-213.2
		C842.8,349.5,833.4,422.7,824,495.9"/>
	<path class="st1" d="M1222.3,650.2c-29.4,5.4-44.1,8.1-73.6,13.4c-14.8-57.8-29.5-115.6-44-173.5c-15.1,1.9-22.6,2.8-37.7,4.7
		c0,61.3,0,122.5,0,183.8c-27.2,5-40.7,7.4-67.9,12.4c0-194.7,0.1-389.4,0.1-584.1h156.6c62.1,0.1,56.3,102.4,57.2,141.7
		c0,29.6,0,44.4,0,74c-1,43.4,3.5,115.8-40,143.3C1189.2,527.4,1205.6,588.9,1222.3,650.2 M1067,236.8c0,44.1,0,88.2,0,132.3
		c24.4-2,36.6-3.1,61-5.1c12.9-1.1,17-11.8,17-44.4c0-17.2,0-25.8,0-43c0-32.7-4.1-42.8-17-42.3
		C1103.6,235.3,1091.4,235.8,1067,236.8"/>
	<path class="st1" d="M1310.3,505.4c41.7-5.8,118.3-16.3,160-22.1c0,41.1,0,80.6,0,121.6c-64.3,11.8-163.6,29.9-228,41.7l0.1-539.7
		h227.8c0,41.1,0,80.8,0,121.9c-40.7,1.8-119.3,5.1-160,6.9c0,29.5,0,44.3,0,73.8c47.3-3.6,94.6-7.1,141.9-10.7
		c0,35.8,0,71.5,0,107.2L1310.3,421C1310.3,449.1,1310.3,477.2,1310.3,505.4"/>
	<path class="st1" d="M288.3,1186.1c0,67.4,0,134.8,0,202.3c-30.3-4-60.6-8-90.9-12.1l0,551.1h-86.8c0-187.5,0-375.1,0-562.6
		c-30.3-4-80.3-10.6-110.6-14.6v-217C89.5,1149.5,198.7,1169.8,288.3,1186.1"/>
	<path class="st1" d="M388.8,1927.4c-87.7,2.4-80.4-160.5-81.2-212.9c0-104,0-208,0-312c0.8-43.8-6-218.1,81.2-198.1
		c43.7,8,87.4,16,131.1,23.9c84.2,16.8,80.1,150.3,81.2,212.3c0,96.4,0,192.9,0,289.3c-1,53.5,4.1,196.9-81.2,197.4H388.8z
		 M488.5,1743.2c18.9,0.9,25.7-14.8,25.7-62.8c0-68.7,0-137.3,0-206c0-48-6.8-64.9-25.7-67.5c-27.3-3.7-41-5.5-68.3-9.2
		c-19.3-2.6-25.7,13-25.7,62.5c0,70.8,0,141.6,0,212.4c-1.3,23.8-2.5,60.2,25.7,67.2C447.5,1741.2,461.2,1741.9,488.5,1743.2"/>
	<path class="st1" d="M636.1,1927.4c0-225.9,0-451.8-0.1-677.7c63,11.5,126,23,189,34.5c97.5,16.8,99.2,169.5,100.5,241.5
		c0,59.5,0,119,0,178.5c-1.4,65.8-1.5,222.1-100.5,223.2H636.1z M722.9,1754.4c27.9,1.3,55.8,2.7,83.6,4
		c33.3-7.2,30.4-44.1,32.2-71.7c0-53.1,0-106.2,0-159.3c-1.6-24.8,0.7-70.4-32.2-77.6c-27.9-3.8-55.8-7.5-83.6-11.3
		C722.9,1543.8,722.9,1649.1,722.9,1754.4"/>
	<path class="st1" d="M1161.2,1927.4c-5.2-30.3-10.5-60.7-15.7-91c-38.5-1.1-76.9-2.2-115.4-3.3c-5.2,31.4-10.5,62.9-15.7,94.3
		h-91.7c38.1-201.5,77.4-402.8,118.1-603.8c32.8,6,65.7,12,98.5,18c38,195.5,77.3,390.8,117.9,585.8H1161.2z M1051.8,1705.6
		c28.8,1.9,43.2,2.9,72,4.8c-12-71.1-24-142.2-35.8-213.3C1075.8,1566.6,1063.7,1636.1,1051.8,1705.6"/>
	<path class="st1" d="M1484.2,1404.9c-32.5,108.5-65,217.1-97.5,325.6c0,65.6,0,131.3,0,196.9h-86.8c0-67.6,0-135.1,0-202.7
		c-38.7-124.4-76.2-249.2-112.6-374.3c33.5,6.1,67,12.2,100.5,18.4c19,70.4,38.3,140.8,57.9,211c19-63.4,38.2-126.7,57.8-189.9
		C1435.4,1395.7,1452.3,1399,1484.2,1404.9"/>
	<path class="st1" d="M71.3,81.2C55.6,54.1,40,27.1,24.5,0h54.9C91,13.2,96.9,19.7,108.5,32.7C120.2,19.6,126,13,137.7,0h54.9
		c-15.7,26.6-31.3,53.3-46.8,80C116,80.5,101.1,80.7,71.3,81.2"/>
	<path class="st1" d="M1383.1,29.8l-0.1,51.7H1319c-0.3-17.2-0.5-34.4-0.8-51.7C1344.2,29.8,1357.1,29.8,1383.1,29.8"/>
	<path class="st1" d="M407.1,916.7c-86.3,7.7-172.6,15.4-258.9,23v43.1c77.2-2.2,154.3-4.5,231.5-6.7v82.2
		c-77.2-4.5-154.3-8.9-231.5-13.4v89.5c-49.3-9-98.6-18-147.9-27v-208c135.6-24.8,271.2-49.6,406.8-74.5V916.7z"/>
	<path class="st1" d="M581.1,1213.5c-72.5-11.7-137.7-52.4-138.3-132V925.1c0.6-79.6,65.9-120.3,138.3-132
		c74.4-13.6,148.8-27.2,223.3-40.9c96.7-20.9,139.2,44.5,138.3,134.2v233.7c0.9,89.6-41.7,155.1-138.3,134.2
		C729.9,1240.7,655.5,1227.1,581.1,1213.5 M750.9,1118.4c32.2,2.8,43.8-7.6,43.8-41.8V929.9c0-34.2-11.6-44.6-43.8-41.8
		c-38.8,3.4-77.6,6.8-116.4,10.2c-32.9,2.9-43.8,13.5-43.8,42.6v124.8c0,29.1,11,39.7,43.8,42.6
		C673.3,1111.6,712.1,1115,750.9,1118.4"/>
	<path class="st1" d="M1469.7,1375.8c-47.1-8.6-94.3-17.2-141.4-25.8c-30.9-76.9-62.7-153.3-95.9-229.2c-27.4-1.8-54.8-3.6-82.2-5.4
		v202c-49.3-9-98.6-18-147.9-27V716c113.7-20.8,227.4-41.6,341-62.4c110-20.3,122.6,86.4,124.6,170.8v101.1
		c-1.6,67.2-4.6,167.2-87,184.6C1410.5,1198.7,1440.1,1287.2,1469.7,1375.8 M1150.2,831.7v145.5c44.3-0.7,88.6-1.4,132.9-2
		c28.1-0.4,37-13.4,37-53.9V868c0-40.5-8.9-52.4-37-49.6C1238.8,822.8,1194.5,827.2,1150.2,831.7"/>
</g>
</svg>
